<svg xmlns="http://www.w3.org/2000/svg" width="260" height="60" viewBox="0 0 260 60" role="img" aria-label="Download the sample dataset, test-data.json">
  <defs>
    <linearGradient id="dataBg" x1="0" y1="0" x2="0" y2="1">
      <stop offset="0" stop-color="#16171d"/>
      <stop offset="1" stop-color="#0d0d12"/>
    </linearGradient>
  </defs>

  <rect x="0" y="0" width="260" height="60" rx="14" fill="url(#dataBg)"/>
  <rect x="0.5" y="0.5" width="259" height="59" rx="13.5" fill="none" stroke="#49d4b9" stroke-opacity="0.42"/>

  <circle cx="33" cy="30" r="16" fill="#49d4b9" fill-opacity="0.14"/>
  <path d="M30 20h7l6 6v14a2.5 2.5 0 0 1-2.5 2.5h-10.5A2.5 2.5 0 0 1 27.5 40V22.5A2.5 2.5 0 0 1 30 20z" fill="none" stroke="#49d4b9" stroke-width="2" stroke-linejoin="round"/>
  <path d="M36.5 20v6.5H43" fill="none" stroke="#49d4b9" stroke-width="2" stroke-linejoin="round"/>
  <path d="M32.5 31.5h6M32.5 36h6" fill="none" stroke="#49d4b9" stroke-width="2" stroke-linecap="round" stroke-opacity="0.75"/>

  <text x="63" y="27" font-family="-apple-system, BlinkMacSystemFont, 'Segoe UI', Helvetica, Arial, sans-serif" font-size="16" font-weight="700" fill="#f3f4f6">Sample Data</text>
  <text x="63" y="44" font-family="-apple-system, BlinkMacSystemFont, 'Segoe UI', Helvetica, Arial, sans-serif" font-size="11" font-weight="600" fill="#999ca8">test-data.json &#183; 56 pay cycles</text>
</svg>
